HIERARCHY
ROOT hip
{
  OFFSET 0 0 0
  CHANNELS 6 Xposition Yposition Zposition Zrotation Yrotation Xrotation
  JOINT abdomen
  {
    OFFSET 0 20.6881 -0.73152
    CHANNELS 3 Zrotation Xrotation Yrotation
    JOINT chest
    {
      OFFSET 0 11.7043 -0.48768
      CHANNELS 3 Zrotation Xrotation Yrotation
      JOINT neck
      {
        OFFSET 0 22.1894 -2.19456
        CHANNELS 3 Zrotation Xrotation Yrotation
        JOINT head
        {
          OFFSET -0.24384 7.07133 1.2192
          CHANNELS 3 Zrotation Xrotation Yrotation
          JOINT leftEye
          {
            OFFSET 4.14528 8.04674 8.04672
            CHANNELS 3 Zrotation Xrotation Yrotation
            End Site
            {
              OFFSET 1 0 0
            }
          }
          JOINT rightEye
          {
            OFFSET -3.6576 8.04674 8.04672
            CHANNELS 3 Zrotation Xrotation Yrotation
            End Site
            {
              OFFSET 1 0 0
            }
          }
        }
      }
      JOINT rCollar
      {
        OFFSET -2.68224 19.2634 -4.8768
        CHANNELS 3 Zrotation Xrotation Yrotation
        JOINT rShldr
        {
          OFFSET -8.77824 -1.95073 1.46304
          CHANNELS 3 Zrotation Xrotation Yrotation
          JOINT rForeArm
          {
            OFFSET -28.1742 -1.7115 0.48768
            CHANNELS 3 Zrotation Xrotation Yrotation
            JOINT rHand
            {
              OFFSET -22.5879 0.773209 7.07136
              CHANNELS 3 Zrotation Xrotation Yrotation
              JOINT rThumb1
              {
                OFFSET -1.2192 -0.487915 3.41376
                CHANNELS 3 Zrotation Xrotation Yrotation
                JOINT rThumb2
                {
                  OFFSET -3.37035 -0.52449 3.41376
                  CHANNELS 3 Zrotation Xrotation Yrotation
                  End Site
                  {
                    OFFSET -1.78271 -1.18214 1.43049
                  }
                }
              }
              JOINT rIndex1
              {
                OFFSET -7.75947 0.938293 5.60832
                CHANNELS 3 Zrotation Xrotation Yrotation
                JOINT rIndex2
                {
                  OFFSET -2.54057 -0.884171 1.56538
                  CHANNELS 3 Zrotation Xrotation Yrotation
                  End Site
                  {
                    OFFSET -1.62519 -0.234802 1.16502
                  }
                }
              }
              JOINT rMid1
              {
                OFFSET -8.24714 1.18213 3.41376
                CHANNELS 3 Zrotation Xrotation Yrotation
                JOINT rMid2
                {
                  OFFSET -3.10165 -0.590103 1.0647
                  CHANNELS 3 Zrotation Xrotation Yrotation
                  End Site
                  {
                    OFFSET -2.48547 -0.328903 0.83742
                  }
                }
              }
              JOINT rRing1
              {
                OFFSET -8.82822 0.546677 1.51678
                CHANNELS 3 Zrotation Xrotation Yrotation
                JOINT rRing2
                {
                  OFFSET -2.60934 -0.819778 -0.0198488
                  CHANNELS 3 Zrotation Xrotation Yrotation
                  End Site
                  {
                    OFFSET -2.33842 -0.294052 0.168128
                  }
                }
              }
              JOINT rPinky1
              {
                OFFSET -8.27202 -0.0477905 -0.4584
                CHANNELS 3 Zrotation Xrotation Yrotation
                JOINT rPinky2
                {
                  OFFSET -1.82734 -0.647385 -0.700984
                  CHANNELS 3 Zrotation Xrotation Yrotation
                  End Site
                  {
                    OFFSET -1.69225 -0.51767 -0.607171
                  }
                }
              }
            }
          }
        }
      }
      JOINT lCollar
      {
        OFFSET 2.68224 19.2634 -4.8768
        CHANNELS 3 Zrotation Xrotation Yrotation
        JOINT lShldr
        {
          OFFSET 8.77824 -1.95073 1.46304
          CHANNELS 3 Zrotation Xrotation Yrotation
          JOINT lForeArm
          {
            OFFSET 28.1742 -1.7115 0.48768
            CHANNELS 3 Zrotation Xrotation Yrotation
            JOINT lHand
            {
              OFFSET 22.5879 0.773209 7.07136
              CHANNELS 3 Zrotation Xrotation Yrotation
              JOINT lThumb1
              {
                OFFSET 1.2192 -0.487915 3.41376
                CHANNELS 3 Zrotation Xrotation Yrotation
                JOINT lThumb2
                {
                  OFFSET 3.37035 -0.52449 3.41376
                  CHANNELS 3 Zrotation Xrotation Yrotation
                  End Site
                  {
                    OFFSET 1.78271 -1.18214 1.43049
                  }
                }
              }
              JOINT lIndex1
              {
                OFFSET 7.75947 0.938293 5.60832
                CHANNELS 3 Zrotation Xrotation Yrotation
                JOINT lIndex2
                {
                  OFFSET 2.54057 -0.884171 1.56538
                  CHANNELS 3 Zrotation Xrotation Yrotation
                  End Site
                  {
                    OFFSET 1.62519 -0.234802 1.16502
                  }
                }
              }
              JOINT lMid1
              {
                OFFSET 8.24714 1.18213 3.41376
                CHANNELS 3 Zrotation Xrotation Yrotation
                JOINT lMid2
                {
                  OFFSET 3.10165 -0.590103 1.0647
                  CHANNELS 3 Zrotation Xrotation Yrotation
                  End Site
                  {
                    OFFSET 2.48547 -0.328903 0.83742
                  }
                }
              }
              JOINT lRing1
              {
                OFFSET 8.82822 0.546677 1.51678
                CHANNELS 3 Zrotation Xrotation Yrotation
                JOINT lRing2
                {
                  OFFSET 2.60934 -0.819778 -0.0198488
                  CHANNELS 3 Zrotation Xrotation Yrotation
                  End Site
                  {
                    OFFSET 2.33842 -0.294052 0.168128
                  }
                }
              }
              JOINT lPinky1
              {
                OFFSET 8.27202 -0.0477905 -0.4584
                CHANNELS 3 Zrotation Xrotation Yrotation
                JOINT lPinky2
                {
                  OFFSET 1.82734 -0.647385 -0.700984
                  CHANNELS 3 Zrotation Xrotation Yrotation
                  End Site
                  {
                    OFFSET 1.69225 -0.51767 -0.607171
                  }
                }
              }
            }
          }
        }
      }
    }
  }
  JOINT rButtock
  {
    OFFSET -8.77824 4.35084 1.2192
    CHANNELS 3 Zrotation Xrotation Yrotation
    JOINT rThigh
    {
      OFFSET 0 -1.70687 -2.19456
      CHANNELS 3 Zrotation Xrotation Yrotation
      JOINT rShin
      {
        OFFSET 0 -36.8199 0.73152
        CHANNELS 3 Zrotation Xrotation Yrotation
        JOINT rFoot
        {
          OFFSET 0.73152 -45.1104 -5.12064
          CHANNELS 3 Zrotation Xrotation Yrotation
          End Site
          {
            OFFSET -1.1221 -3.69964 12.103
          }
        }
      }
    }
  }
  JOINT lButtock
  {
    OFFSET 8.77824 4.35084 1.2192
    CHANNELS 3 Zrotation Xrotation Yrotation
    JOINT lThigh
    {
      OFFSET 0 -1.70687 -2.19456
      CHANNELS 3 Zrotation Xrotation Yrotation
      JOINT lShin
      {
        OFFSET 0 -36.8199 0.73152
        CHANNELS 3 Zrotation Xrotation Yrotation
        JOINT lFoot
        {
          OFFSET -0.73152 -45.1104 -5.12064
          CHANNELS 3 Zrotation Xrotation Yrotation
          End Site
          {
            OFFSET 1.1221 -3.69964 12.103
          }
        }
      }
    }
  }
}
MOTION
Frames:	4
Frame Time:	0.03333
-10.692799999999998 63.370500000000014 13.0499 5.52169942855835 -0.6833000779151917 4.649400234222412 -6.689919948577881 18.82219886779785 -2.9469399452209473 4.643479824066162 -9.725790023803711 -0.5715568661689758 -4.702019691467285 15.742201805114746 -1.792140007019043 6.748789310455322 -30.686899185180664 -1.7012006044387817 -0.0 0.0 -0.0 -0.0 0.0 -0.0 1.4951898768579552e-13 -2.0872599438767625e-13 -1.3669599814873559e-14 70.12999725341797 13.666297912597656 -11.506400108337402 -18.58909797668457 -11.334300994873047 35.355995178222656 -0.10675899684429169 9.252849578857422 1.312059998512268 9.848899473752226e-10 -2.4491098038481596e-09 6.551629794238067e-10 1.7127498308511235e-09 -4.2369303621114796e-09 1.129169979741107e-09 9.848889481745005e-10 -2.4491098038481596e-09 6.551610365335137e-10 7.730909824371338 5.474879741668701 0.4173140823841095 9.848869497730561e-10 -2.449100033885543e-09 6.551700293400131e-10 2.9055399894714355 0.9651829600334167 0.10290199518203735 9.848939441781113e-10 -2.449100033885543e-09 6.55169030139291e-10 10.27859878540039 0.73180091381073 0.025912316516041756 9.848839521708896e-10 -2.449100033885543e-09 6.551789666353613e-10 2.221669912338257 -0.733487069606781 -0.208919957280159 1.4940998470987926e-13 -2.0872299927917476e-13 -1.3908699428191555e-14 -54.69009780883789 38.724700927734375 -30.44279670715332 17.627199172973633 -10.293102264404297 -33.18449783325195 0.017371300607919693 4.0552496910095215 -0.5706639885902405 -1.5622398930048575e-09 -1.7553599684916321e-09 -5.03197983281467e-10 -2.7060098606312977e-09 -3.028939987714807e-09 -8.634070125523863e-10 -1.5622398930048575e-09 -1.7553599684916321e-09 -5.031859928728011e-10 -7.730909824371338 5.474879741668701 -0.4173140823841095 -1.5622499960343816e-09 -1.7553599684916321e-09 -5.031999816829114e-10 -2.9055399894714355 0.9651829600334167 -0.10290199518203735 -1.5622499960343816e-09 -1.7553599684916321e-09 -5.031959848800227e-10 -10.27859878540039 0.73180091381073 -0.025912316516041756 -1.5622398930048575e-09 -1.7553599684916321e-09 -5.032079752886887e-10 -2.221669912338257 -0.733487069606781 0.208919957280159 -2.0321699480147914e-16 0.0 -3.8825099822884138e-19 -5.0066399574279785 -64.41561889648438 1.6448694467544556 -0.43727201223373413 41.87869644165039 0.4170880615711212 -0.48736700415611267 -2.4018399715423584 -1.775670051574707 2.0321699480147914e-16 0.0 3.8825099822884138e-19 -2.9834799766540527 -28.1018009185791 1.9716399908065796 1.3262699842453003 67.83049774169922 -3.2234699726104736 13.258399963378906 -17.61250114440918 32.7567024230957
-10.458699999999999 62.9449 10.468 4.956900119781494 -3.4915003776550293 5.235999584197998 -7.480360507965088 19.11359977722168 -1.958270788192749 4.57696008682251 -10.092900276184082 -0.3263430595397949 -4.497159957885742 15.409601211547852 -1.2843801975250244 7.265629768371582 -31.125703811645508 -0.4955168068408966 -0.0 0.0 -0.0 -0.0 0.0 -0.0 1.736150014985255e-13 -1.7811299039393463e-13 1.0898399560197933e-13 70.37259674072266 14.344101905822754 -11.403400421142578 -18.600299835205078 -11.346999168395996 35.38119888305664 -0.09807710349559784 8.896941184997559 1.2606298923492432 8.248239868891005e-10 -2.2205299821109747e-09 1.1466699811890635e-09 1.44098999399489e-09 -3.843529938762913e-09 1.9833599207430552e-09 8.248279836919892e-10 -2.2205299821109747e-09 1.1466599891818419e-09 7.730909824371338 5.474879741668701 0.4173140823841095 8.248229876883784e-10 -2.2205299821109747e-09 1.1466699811890635e-09 2.9055399894714355 0.9651829600334167 0.10290199518203735 8.248289828927113e-10 -2.2205299821109747e-09 1.1466699811890635e-09 10.27859878540039 0.73180091381073 0.025912316516041756 8.248189908854897e-10 -2.2205299821109747e-09 1.1466799731962851e-09 2.221669912338257 -0.733487069606781 -0.208919957280159 1.734739874534666e-13 -1.7811098461991554e-13 1.0883499911842551e-13 -53.467193603515625 38.1305046081543 -30.892101287841797 17.958698272705078 -10.642400741577148 -33.92780303955078 0.0049650901928544044 2.0115199089050293 -0.282819002866745 -2.2607400396168487e-09 -2.789129815994329e-09 -6.713929412427433e-10 -3.91491994378157e-09 -4.816020027220702e-09 -1.1535800092943305e-09 -2.2607400396168487e-09 -2.7891198239871073e-09 -6.713830047466729e-10 -7.730909824371338 5.474879741668701 -0.4173140823841095 -2.2607500316240703e-09 -2.7891498000087722e-09 -6.713989364470763e-10 -2.9055399894714355 0.9651829600334167 -0.10290199518203735 -2.2607500316240703e-09 -2.7891198239871073e-09 -6.71389999151728e-10 -10.27859878540039 0.73180091381073 -0.025912316516041756 -2.2607500316240703e-09 -2.7891198239871073e-09 -6.71401989560394e-10 -2.221669912338257 -0.733487069606781 0.208919957280159 -2.0321699480147914e-16 0.0 -3.8825099822884138e-19 -5.0931396484375 -66.55941009521484 -6.411369800567627 -0.6002169847488403 48.29719924926758 0.6769140958786011 -1.667219877243042 -2.3509202003479004 -8.046560287475586 2.0321699480147914e-16 0.0 3.8825099822884138e-19 -1.918120265007019 -31.65570068359375 4.6790008544921875 1.5153199434280396 69.57830047607422 -3.4362900257110596 13.877298355102539 -17.769197463989258 33.5093994140625
-10.1532 62.5232 7.791219999999999 4.703700065612793 -6.142099857330322 5.675699234008789 -8.902379989624023 19.66130256652832 -0.6360049843788147 4.308969974517822 -10.498701095581055 -0.044988226145505905 -4.342609405517578 15.10319709777832 -0.983616054058075 7.768900394439697 -31.5371036529541 0.295139878988266 -0.0 0.0 -0.0 -0.0 0.0 -0.0 9.932399819062229e-14 -9.999229363347878e-14 2.44284979614498e-13 70.8302993774414 14.970199584960938 -11.300799369812012 -18.6742000579834 -11.430200576782227 35.55089569091797 -0.10140599310398102 9.043622016906738 1.2817697525024414 2.5206398079902215e-10 -6.196659851909203e-10 1.3028098599932036e-09 4.497219818766496e-10 -1.0742599032553812e-09 2.257380060655123e-09 2.520699760033551e-10 -6.196649859901981e-10 1.3027999790082845e-09 7.730909824371338 5.474879741668701 0.4173140823841095 2.5206398079902215e-10 -6.196659851909203e-10 1.3028098599932036e-09 2.9055399894714355 0.9651829600334167 0.10290199518203735 2.5207300136109723e-10 -6.196680391035159e-10 1.3028098599932036e-09 10.27859878540039 0.73180091381073 0.025912316516041756 2.5206098319685566e-10 -6.196689827930868e-10 1.3028198520004253e-09 2.221669912338257 -0.733487069606781 -0.208919957280159 9.925910191433546e-14 -9.998599848461479e-14 2.442659789714252e-13 -52.02790069580078 37.53570556640625 -31.56110191345215 18.222797393798828 -10.928500175476074 -34.52180480957031 0.00018888598424382508 0.4271469712257385 -0.060099296271800995 -1.7856499612278753e-09 -2.737939874819517e-09 -6.034319710579439e-10 -3.0900797476363095e-09 -4.729669988989826e-09 -1.0393199634251005e-09 -1.7856499612278753e-09 -2.737939874819517e-09 -6.034249766528887e-10 -7.730909824371338 5.474879741668701 -0.4173140823841095 -1.7856499612278753e-09 -2.7379500888713437e-09 -6.034370225727059e-10 -2.9055399894714355 0.9651829600334167 -0.10290199518203735 -1.7856499612278753e-09 -2.737939874819517e-09 -6.034319710579439e-10 -10.27859878540039 0.73180091381073 -0.025912316516041756 -1.7856499612278753e-09 -2.737939874819517e-09 -6.03438965462999e-10 -2.221669912338257 -0.733487069606781 0.208919957280159 -2.0321699480147914e-16 0.0 -3.8825099822884138e-19 -3.863560438156128 -68.2883071899414 -9.707860946655273 -0.9282808303833008 56.973697662353516 1.1329998970031738 -2.6065800189971924 -3.0225205421447754 -11.968999862670898 2.0321699480147914e-16 0.0 3.8825099822884138e-19 -1.1553298234939575 -35.10850143432617 7.283249855041504 1.7696200609207153 71.40461730957031 -3.655240058898926 14.167800903320312 -17.524499893188477 33.97529983520508
-9.82862 62.036699999999996 5.02782 4.633199691772461 -8.801198959350586 6.188300132751465 -10.398198127746582 20.139801025390625 0.7422969937324524 3.952279806137085 -10.864701271057129 0.23354697227478027 -4.2228803634643555 14.815301895141602 -0.7602757811546326 8.231199264526367 -31.99229621887207 0.9246339201927185 -0.0 0.0 -0.0 -0.0 0.0 -0.0 6.35493964919122e-15 -9.546319660604877e-15 2.7665898543437206e-13 71.26789855957031 15.675299644470215 -11.062301635742188 -18.788999557495117 -11.560799598693848 35.814998626708984 -0.10644799470901489 9.264829635620117 1.3136701583862305 -1.6010098802254902e-10 7.910389565601861e-10 1.1320600012965087e-09 -2.6689997434381496e-10 1.3665598652679023e-09 1.963039952812551e-09 -1.6009399361749388e-10 7.910410104727816e-10 1.1320498982669847e-09 7.730909824371338 5.474879741668701 0.4173140823841095 -1.6010098802254902e-10 7.91037013669893e-10 1.1320498982669847e-09 2.9055399894714355 0.9651829600334167 0.10290199518203735 -1.6008999681460523e-10 7.910339605565753e-10 1.1320600012965087e-09 10.27859878540039 0.73180091381073 0.025912316516041756 -1.60102001101059e-10 7.910289645529645e-10 1.1320699933037304e-09 2.221669912338257 -0.733487069606781 -0.208919957280159 6.367640061202351e-15 -9.536999757086238e-15 2.767079913725684e-13 -50.65919876098633 36.815399169921875 -32.299598693847656 18.384599685668945 -11.106300354003906 -34.8888053894043 0.00038380001205950975 -0.5594020485877991 0.07862140238285065 -7.792100298331661e-10 -1.8222998665606838e-09 -3.787249958087102e-10 -1.3466000536865863e-09 -3.150209870739218e-09 -6.54683918188681e-10 -7.79210973522737e-10 -1.8222998665606838e-09 -3.7872097125024595e-10 -7.730909824371338 5.474879741668701 -0.4173140823841095 -7.792100298331661e-10 -1.8222998665606838e-09 -3.787279934108767e-10 -2.9055399894714355 0.9651829600334167 -0.10290199518203735 -7.792119727234592e-10 -1.8222998665606838e-09 -3.7872899261159887e-10 -10.27859878540039 0.73180091381073 -0.025912316516041756 -7.792009815155154e-10 -1.8222998665606838e-09 -3.787310187686188e-10 -2.221669912338257 -0.733487069606781 0.208919957280159 -2.0321699480147914e-16 0.0 -3.8825099822884138e-19 -1.584700107574463 -69.6633071899414 -10.19260025024414 -1.6620599031448364 66.64779663085938 1.9792200326919556 -3.4058997631073 -4.156239986419678 -14.145097732543945 2.0321699480147914e-16 0.0 3.8825099822884138e-19 -0.09714460372924805 -38.762298583984375 9.94965934753418 2.1053695678710938 73.30540466308594 -3.920489549636841 14.374198913574219 -17.198198318481445 34.31130599975586
